<svg width="128" height="128" viewBox="0 0 128 128" fill="none" xmlns="http://www.w3.org/2000/svg">
<path d="M9 20C9 13.9249 13.9249 9 20 9H108C114.075 9 119 13.9249 119 20V108C119 114.075 114.075 119 108 119H20C13.9249 119 9 114.075 9 108V20Z" fill="white"/>
<g filter="url(#filter0_i_65_2)">
<path fill-rule="evenodd" clip-rule="evenodd" d="M33.2 102.67V33.0623C33.2 30.3273 34.2865 27.7043 36.2204 25.7704C38.1543 23.8365 40.7773 22.75 43.5123 22.75H84.7613C87.4963 22.75 90.1193 23.8365 92.0532 25.7704C93.9871 27.7043 95.0736 30.3273 95.0736 33.0623V102.67C95.0739 103.118 94.9577 103.558 94.7363 103.947C94.5149 104.336 94.1959 104.661 93.8109 104.889C93.4259 105.118 92.988 105.242 92.5404 105.25C92.0927 105.257 91.6508 105.148 91.2581 104.934L64.1368 90.1355L37.0156 104.934C36.6228 105.148 36.1809 105.257 35.7332 105.25C35.2856 105.242 34.8477 105.118 34.4627 104.889C34.0777 104.661 33.7588 104.336 33.5373 103.947C33.3159 103.558 33.1997 103.118 33.2 102.67ZM64.9618 43.8901C64.8864 43.7355 64.7691 43.6052 64.6232 43.514C64.4774 43.4229 64.3088 43.3745 64.1368 43.3745C63.9648 43.3745 63.7962 43.4229 63.6504 43.514C63.5045 43.6052 63.3872 43.7355 63.3118 43.8901L60.0428 50.5158C59.9774 50.6498 59.8803 50.7659 59.7599 50.8539C59.6395 50.9419 59.4995 50.9993 59.3519 51.0211L52.0302 52.0832C51.8617 52.1088 51.7036 52.1808 51.5736 52.2912C51.4437 52.4016 51.3471 52.546 51.2946 52.7082C51.2422 52.8704 51.2359 53.044 51.2766 53.2096C51.3173 53.3751 51.4033 53.5261 51.5249 53.6455L56.8151 58.8068L56.8226 58.8143H44.3286C41.5672 58.8143 39.3286 61.0529 39.3286 63.8143V71.7286C39.3286 74.49 41.5672 76.7286 44.3286 76.7286H83.5929C86.3543 76.7286 88.5929 74.49 88.5929 71.7286V63.8143C88.5929 61.0529 86.3543 58.8143 83.5929 58.8143H71.4357L71.4482 58.8017L76.7487 53.6404C76.8704 53.521 76.9563 53.37 76.997 53.2044C77.0377 53.0389 77.0314 52.8653 76.979 52.703C76.9265 52.5408 76.8299 52.3964 76.7 52.2861C76.5701 52.1757 76.412 52.1037 76.2434 52.0781L68.9217 51.0159C68.7741 50.9942 68.6341 50.9368 68.5137 50.8487C68.3933 50.7607 68.2962 50.6446 68.2308 50.5106L64.9618 43.8901ZM71.4357 58.8143H56.8226C57.0339 59.0253 57.129 59.3259 57.0781 59.6215L55.8354 66.9123C55.8074 67.0806 55.8269 67.2535 55.8917 67.4114C55.9564 67.5692 56.064 67.7059 56.2021 67.8061C56.3403 67.9063 56.5037 67.9659 56.6739 67.9783C56.8441 67.9908 57.0144 67.9555 57.1657 67.8765L63.714 64.4322C63.8453 64.3635 63.9912 64.3276 64.1394 64.3276C64.2875 64.3276 64.4335 64.3635 64.5648 64.4322L71.1131 67.8765C71.2642 67.9541 71.4338 67.9882 71.6032 67.9751C71.7726 67.962 71.935 67.9021 72.0724 67.8022C72.2097 67.7022 72.3166 67.5661 72.3812 67.409C72.4458 67.2519 72.4655 67.0799 72.4382 66.9123L71.1904 59.6163C71.1641 59.4698 71.1738 59.3191 71.2187 59.1772C71.2618 59.0409 71.3362 58.9167 71.4357 58.8143ZM48.5837 68.9104C48.121 68.5232 47.4497 68.2793 46.5697 68.1787C46.5396 68.1184 46.4893 68.0757 46.4189 68.0505C46.3535 68.0203 46.263 68.0053 46.1473 68.0053C45.9512 68.0053 45.8054 68.0455 45.7098 68.1259H45.6193C45.4735 68.1259 45.3478 68.1813 45.2422 68.2919C45.1416 68.4025 45.0913 68.5659 45.0913 68.7822C45.0913 68.9029 45.114 68.9858 45.1592 69.0311C45.2045 69.0763 45.2799 69.099 45.3855 69.099H45.4308L44.9329 72.4254H44.865C44.6991 72.4254 44.5709 72.4832 44.4804 72.5989C44.3898 72.7095 44.3446 72.8453 44.3446 73.0062C44.3446 73.147 44.3848 73.2475 44.4653 73.3079C44.5457 73.3632 44.6865 73.3909 44.8877 73.3909H45.4534C46.1624 73.3909 46.8061 73.2752 47.3844 73.0439C47.9677 72.8075 48.4278 72.4706 48.7647 72.0331C49.1066 71.5906 49.2776 71.0752 49.2776 70.4869C49.2776 69.8231 49.0463 69.2976 48.5837 68.9104ZM47.0902 72.0784C46.7633 72.2544 46.4088 72.365 46.0266 72.4103L46.5094 69.1669C47.6157 69.3278 48.1688 69.7678 48.1688 70.4869C48.1688 70.8087 48.0708 71.1104 47.8746 71.392C47.6785 71.6686 47.417 71.8974 47.0902 72.0784ZM50.6791 69.3403C50.7847 69.4409 50.9255 69.4912 51.1015 69.4912C51.3277 69.4912 51.5213 69.4133 51.6823 69.2574C51.8432 69.0965 51.9236 68.9029 51.9236 68.6766C51.9236 68.5157 51.8708 68.3874 51.7652 68.2919C51.6596 68.1963 51.5188 68.1486 51.3428 68.1486C51.1115 68.1486 50.9154 68.224 50.7545 68.3749C50.5986 68.5257 50.5207 68.7168 50.5207 68.9481C50.5207 69.109 50.5735 69.2398 50.6791 69.3403ZM49.9549 73.2853C50.0455 73.3506 50.1636 73.3833 50.3095 73.3833C50.4704 73.3833 50.6087 73.3456 50.7243 73.2702C50.845 73.1897 50.9179 73.0816 50.9431 72.9458L51.4937 70.1701C51.4987 70.1499 51.5012 70.1198 51.5012 70.0795C51.5012 69.9739 51.456 69.8885 51.3655 69.8231C51.28 69.7527 51.1643 69.7175 51.0185 69.7175C50.8576 69.7175 50.7193 69.7577 50.6036 69.8382C50.488 69.9136 50.4176 70.0192 50.3924 70.155L49.8343 72.9383C49.8292 72.9584 49.8267 72.9861 49.8267 73.0213C49.8267 73.1269 49.8695 73.2149 49.9549 73.2853ZM54.065 73.4361C53.7331 73.4361 53.4314 73.3682 53.1598 73.2325C52.8883 73.0917 52.6721 72.9006 52.5111 72.6592C52.3553 72.4178 52.2773 72.1488 52.2773 71.8521C52.2773 71.4247 52.3729 71.035 52.5639 70.683C52.755 70.331 53.0215 70.0544 53.3635 69.8533C53.7054 69.6471 54.0876 69.544 54.51 69.544C54.7866 69.544 55.0606 69.5993 55.3322 69.7099C55.6037 69.8155 55.825 69.9639 55.9959 70.155C56.1669 70.341 56.2524 70.5447 56.2524 70.7659C56.2524 70.9118 56.1921 71.0224 56.0714 71.0978C55.9557 71.1682 55.8174 71.2034 55.6565 71.2034C55.5509 71.2034 55.4705 71.1758 55.4151 71.1205C55.3598 71.0601 55.3095 70.9746 55.2643 70.864C55.2241 70.7534 55.1411 70.6453 55.0154 70.5397C54.8947 70.4341 54.7489 70.3813 54.5779 70.3813C54.3566 70.3813 54.153 70.4517 53.9669 70.5925C53.7859 70.7333 53.6426 70.9168 53.537 71.1431C53.4314 71.3694 53.3786 71.6057 53.3786 71.8521C53.3786 72.0885 53.4439 72.272 53.5747 72.4027C53.7105 72.5335 53.9116 72.5989 54.1781 72.5989C54.3843 72.5989 54.5628 72.5611 54.7137 72.4857C54.8695 72.4103 54.9877 72.3122 55.0682 72.1915C55.1486 72.0709 55.1889 71.9502 55.1889 71.8295C55.1889 71.749 55.2391 71.6761 55.3397 71.6107C55.4453 71.5403 55.5685 71.5051 55.7093 71.5051C55.8602 71.5051 55.9733 71.5303 56.0487 71.5806C56.1292 71.6258 56.1694 71.7088 56.1694 71.8295C56.1694 72.1413 56.0764 72.4203 55.8903 72.6667C55.7043 72.9081 55.4503 73.0967 55.1285 73.2325C54.8117 73.3682 54.4572 73.4361 54.065 73.4361ZM59.4103 72.003C59.3449 71.9527 59.2418 71.9275 59.101 71.9275C58.8295 71.9275 58.6711 72.0457 58.6258 72.2821C58.6057 72.3977 58.5806 72.4782 58.5504 72.5234C58.5252 72.5687 58.4775 72.5913 58.4071 72.5913C58.3115 72.5913 58.2638 72.4857 58.2638 72.2745C58.2638 71.9225 58.3417 71.4121 58.4976 70.7433H58.8596C59.0557 70.7433 59.1966 70.7031 59.282 70.6226C59.3675 70.5371 59.4103 70.4089 59.4103 70.2379C59.4103 70.0519 59.2946 69.9563 59.0633 69.9513L58.7088 69.9438C58.8043 69.6119 58.9175 69.2473 59.0482 68.8501C59.0633 68.8048 59.0708 68.7621 59.0708 68.7218C59.0708 68.6213 59.0281 68.5383 58.9426 68.4729C58.8571 68.4075 58.7415 68.3749 58.5956 68.3749C58.4498 68.3749 58.3241 68.4075 58.2185 68.4729C58.1179 68.5333 58.045 68.6238 57.9998 68.7445C57.8791 69.0763 57.7559 69.4585 57.6302 69.891L57.4642 69.8834C57.2731 69.8734 57.1273 69.9136 57.0267 70.0041C56.9312 70.0896 56.8834 70.2229 56.8834 70.4039C56.8834 70.605 57.0041 70.7081 57.2455 70.7131L57.419 70.7207C57.2882 71.3291 57.2228 71.8245 57.2228 72.2066C57.2228 72.6089 57.3335 72.9157 57.5547 73.1269C57.776 73.3381 58.05 73.4437 58.3769 73.4437C58.7339 73.4437 59.013 73.328 59.2142 73.0967C59.4153 72.8603 59.5159 72.5687 59.5159 72.2217C59.5159 72.1211 59.4807 72.0482 59.4103 72.003ZM61.5097 69.4912C61.3337 69.4912 61.1929 69.4409 61.0873 69.3403C60.9817 69.2398 60.9289 69.109 60.9289 68.9481C60.9289 68.7168 61.0069 68.5257 61.1627 68.3749C61.3237 68.224 61.5198 68.1486 61.7511 68.1486C61.9271 68.1486 62.0679 68.1963 62.1735 68.2919C62.2791 68.3874 62.3319 68.5157 62.3319 68.6766C62.3319 68.9029 62.2514 69.0965 62.0905 69.2574C61.9296 69.4133 61.736 69.4912 61.5097 69.4912ZM60.7177 73.3833C60.5719 73.3833 60.4537 73.3506 60.3632 73.2853C60.2777 73.2149 60.235 73.1269 60.235 73.0213C60.235 72.9861 60.2375 72.9584 60.2425 72.9383L60.8007 70.155C60.8258 70.0192 60.8962 69.9136 61.0119 69.8382C61.1275 69.7577 61.2658 69.7175 61.4267 69.7175C61.5726 69.7175 61.6882 69.7527 61.7737 69.8231C61.8642 69.8885 61.9095 69.9739 61.9095 70.0795C61.9095 70.1198 61.907 70.1499 61.9019 70.1701L61.3513 72.9458C61.3262 73.0816 61.2533 73.1897 61.1326 73.2702C61.0169 73.3456 60.8786 73.3833 60.7177 73.3833ZM63.1231 73.0439C63.465 73.3154 63.9301 73.4512 64.5185 73.4512C64.9711 73.4512 65.3708 73.3582 65.7178 73.1721C66.0648 72.981 66.3313 72.7221 66.5173 72.3952C66.7084 72.0633 66.804 71.6962 66.804 71.2939C66.804 70.7307 66.6355 70.2958 66.2986 69.989C65.9617 69.6773 65.5066 69.5214 64.9333 69.5214C64.4908 69.5214 64.0911 69.627 63.734 69.8382C63.382 70.0494 63.1055 70.331 62.9043 70.683C62.7082 71.035 62.6101 71.4121 62.6101 71.8144C62.6101 72.3575 62.7811 72.7673 63.1231 73.0439ZM65.3935 72.2368C65.1873 72.4882 64.8956 72.6139 64.5185 72.6139C64.262 72.6139 64.0634 72.5486 63.9226 72.4178C63.7818 72.2871 63.7114 72.0859 63.7114 71.8144C63.7114 71.5781 63.7617 71.3493 63.8623 71.128C63.9628 70.9017 64.1061 70.7182 64.2922 70.5774C64.4783 70.4315 64.692 70.3586 64.9333 70.3586C65.1948 70.3586 65.3884 70.4441 65.5141 70.6151C65.6399 70.781 65.7027 71.0073 65.7027 71.2939C65.7027 71.6711 65.5996 71.9854 65.3935 72.2368ZM69.8394 69.5742C70.1914 69.5742 70.478 69.6898 70.6993 69.9211C70.9205 70.1525 71.0312 70.4718 71.0312 70.8791C71.0312 70.9947 71.0085 71.1934 70.9633 71.475C70.918 71.7515 70.8652 72.0558 70.8049 72.3877C70.7898 72.5033 70.7697 72.6165 70.7445 72.7271C70.7244 72.8327 70.7068 72.9383 70.6917 73.0439C70.6716 73.1696 70.6037 73.2677 70.4881 73.3381C70.3774 73.4034 70.2442 73.4361 70.0883 73.4361C69.9224 73.4361 69.7941 73.3984 69.7036 73.323C69.6131 73.2475 69.5779 73.1545 69.598 73.0439L69.7941 71.8597C69.8042 71.7893 69.8293 71.6334 69.8696 71.392C69.9148 71.1456 69.9374 70.9746 69.9374 70.8791C69.9374 70.7131 69.9073 70.595 69.8469 70.5246C69.7866 70.4491 69.6936 70.4114 69.5678 70.4114C69.427 70.4114 69.2988 70.4768 69.1832 70.6075C69.0725 70.7333 68.9544 70.9872 68.8286 71.3694C68.7532 71.6007 68.6954 71.8345 68.6552 72.0709L68.4892 73.0439C68.4691 73.1696 68.4037 73.2677 68.2931 73.3381C68.1875 73.4085 68.0517 73.4437 67.8858 73.4437C67.7148 73.4437 67.5841 73.4059 67.4936 73.3305C67.4081 73.2551 67.3754 73.1595 67.3955 73.0439C67.4106 72.9584 67.4257 72.8629 67.4408 72.7573C67.4558 72.6517 67.476 72.5385 67.5011 72.4178C67.5212 72.3072 67.5614 72.0583 67.6218 71.6711C67.6872 71.2789 67.74 70.9218 67.7802 70.6C67.7902 70.5346 67.7877 70.4768 67.7726 70.4265C67.7576 70.3762 67.74 70.331 67.7198 70.2907C67.7048 70.2505 67.6922 70.2203 67.6821 70.2002C67.652 70.1298 67.6369 70.0695 67.6369 70.0192C67.6369 69.9086 67.7048 69.8105 67.8405 69.725C67.9763 69.6345 68.1045 69.5893 68.2252 69.5893C68.356 69.5893 68.4666 69.6597 68.5571 69.8005C68.5973 69.8608 68.6275 69.9262 68.6476 69.9966C68.6677 70.067 68.6728 70.1248 68.6627 70.1701L68.6476 70.2606C68.9041 69.803 69.3013 69.5742 69.8394 69.5742ZM75.2794 72.6215C75.2292 72.6064 75.1965 72.5963 75.1814 72.5913C75.1261 72.5762 75.0858 72.5536 75.0607 72.5234C75.0406 72.4882 75.0305 72.4178 75.0305 72.3122C75.0305 72.1262 75.0607 71.8747 75.121 71.5579C75.1864 71.2411 75.2644 70.9621 75.3549 70.7207L75.4152 70.5623C75.5208 70.3109 75.5736 70.1399 75.5736 70.0494C75.5736 69.9589 75.5233 69.8834 75.4228 69.8231C75.3222 69.7627 75.194 69.7326 75.0381 69.7326C74.8118 69.7326 74.666 69.8256 74.6006 70.0117L74.578 70.0871C74.4874 69.9714 74.3567 69.8784 74.1857 69.808C74.0198 69.7326 73.8237 69.6949 73.5974 69.6949C73.2253 69.6949 72.8833 69.7929 72.5715 69.989C72.2648 70.1851 72.0209 70.4491 71.8399 70.781C71.6589 71.1129 71.5684 71.4775 71.5684 71.8747C71.5684 72.2167 71.6362 72.5109 71.772 72.7573C71.9128 73.0037 72.1039 73.1922 72.3453 73.323C72.5917 73.4487 72.8708 73.5115 73.1825 73.5115C73.4088 73.5115 73.615 73.4763 73.801 73.4059C73.9871 73.3355 74.1354 73.2274 74.2461 73.0816C74.3114 73.1973 74.3919 73.2853 74.4874 73.3456C74.583 73.4009 74.7037 73.4286 74.8495 73.4286C75.0607 73.4286 75.209 73.3758 75.2945 73.2702C75.38 73.1646 75.4228 73.0363 75.4228 72.8855C75.4228 72.805 75.4102 72.7447 75.385 72.7045C75.3649 72.6592 75.3297 72.6315 75.2794 72.6215ZM73.7633 72.5159C73.6326 72.6215 73.4742 72.6743 73.2881 72.6743C73.087 72.6743 72.9361 72.6114 72.8356 72.4857C72.735 72.36 72.6847 72.184 72.6847 71.9577C72.6847 71.7365 72.7274 71.5152 72.8129 71.2939C72.8984 71.0727 73.0191 70.8917 73.175 70.7509C73.3309 70.605 73.5044 70.5321 73.6954 70.5321C73.8413 70.5321 73.9594 70.5749 74.0499 70.6603C74.1455 70.7458 74.1933 70.8514 74.1933 70.9771C74.1933 71.0928 74.1329 71.4574 74.0122 72.0709C73.977 72.2619 73.8941 72.4103 73.7633 72.5159ZM78.7813 69.5138C79.083 69.5138 79.3294 69.6043 79.5205 69.7854C79.7116 69.9614 79.8071 70.2229 79.8071 70.5698C79.8071 70.9017 79.6814 71.1682 79.43 71.3694C79.1785 71.5705 78.8517 71.6711 78.4494 71.6711C78.2834 71.6711 78.1728 71.6485 78.1175 71.6032C78.0622 71.5579 78.0345 71.485 78.0345 71.3845C78.0345 71.2688 78.0622 71.1808 78.1175 71.1205C78.1728 71.0551 78.2633 71.0098 78.389 70.9847C78.555 70.9545 78.6832 70.9118 78.7737 70.8565C78.8642 70.8011 78.9095 70.7056 78.9095 70.5698C78.9095 70.4139 78.8416 70.336 78.7058 70.336C78.5701 70.336 78.4293 70.4139 78.2834 70.5698C78.1426 70.7207 78.0169 70.8992 77.9063 71.1054C77.7957 71.3065 77.7177 71.4775 77.6725 71.6183C77.6222 71.7842 77.5669 72.0181 77.5065 72.3198C77.4512 72.6165 77.421 72.7749 77.416 72.795C77.3657 73.0715 77.2928 73.2576 77.1973 73.3531C77.1017 73.4487 76.9609 73.4965 76.7749 73.4965C76.443 73.4965 76.277 73.3858 76.277 73.1646C76.277 73.0791 76.2997 72.9131 76.3449 72.6667C76.3902 72.4203 76.4178 72.2645 76.4279 72.1991C76.4581 72.0734 76.4807 71.9552 76.4958 71.8446C76.541 71.5781 76.5762 71.3417 76.6014 71.1355C76.6265 70.9243 76.6567 70.6025 76.6919 70.1701L76.7221 69.8533C76.7321 69.7225 76.79 69.6194 76.8956 69.544C77.0062 69.4635 77.1445 69.4233 77.3104 69.4233C77.5669 69.4233 77.6951 69.5289 77.6951 69.7401C77.6951 69.8558 77.6825 69.989 77.6574 70.1399L77.6348 70.3134C77.7756 70.077 77.944 69.8859 78.1401 69.7401C78.3362 69.5893 78.55 69.5138 78.7813 69.5138ZM80.6405 75.2992C80.731 75.3797 80.8517 75.4199 81.0025 75.4199C81.1333 75.4199 81.2338 75.3922 81.3042 75.3369C81.3746 75.2816 81.4425 75.2037 81.5079 75.1031C81.6839 74.8114 81.9781 74.2382 82.3904 73.3833L82.6619 72.8327C83.1899 71.7415 83.6174 70.8137 83.9442 70.0494L83.9669 69.9664C83.987 69.8507 83.9468 69.7552 83.8462 69.6798C83.7506 69.5993 83.6174 69.5591 83.4464 69.5591C83.3207 69.5591 83.2201 69.5842 83.1447 69.6345C83.0743 69.6798 83.014 69.7577 82.9637 69.8683C82.8933 70.0242 82.765 70.3209 82.579 70.7584C82.3426 71.3166 82.1465 71.7541 81.9906 72.0709C81.6688 71.6384 81.4827 70.9168 81.4325 69.9061C81.4274 69.8005 81.3998 69.72 81.3495 69.6647C81.2992 69.6043 81.2037 69.5742 81.0629 69.5742C80.907 69.5742 80.7737 69.6119 80.6631 69.6873C80.5575 69.7577 80.4946 69.8608 80.4745 69.9966C80.4695 70.0368 80.467 70.0846 80.467 70.1399C80.467 70.4265 80.5122 70.7458 80.6027 71.0978C80.6933 71.4498 80.8215 71.7918 80.9874 72.1237C81.1534 72.4505 81.3445 72.7246 81.5607 72.9458C81.5456 72.976 81.523 73.0162 81.4928 73.0665C81.4677 73.1118 81.4375 73.1746 81.4023 73.2551C81.3621 73.3305 81.2464 73.5442 81.0553 73.8962C80.8693 74.2533 80.7109 74.5374 80.5801 74.7486C80.5298 74.829 80.5047 74.9195 80.5047 75.0201C80.5047 75.1307 80.5499 75.2238 80.6405 75.2992Z" fill="#B3BEDC"/>
</g>
<defs>
<filter id="filter0_i_65_2" x="33.2" y="22.75" width="61.8736" height="86.5" filterUnits="userSpaceOnUse" color-interpolation-filters="sRGB">
<feFlood flood-opacity="0" result="BackgroundImageFix"/>
<feBlend mode="normal" in="SourceGraphic" in2="BackgroundImageFix" result="shape"/>
<feColorMatrix in="SourceAlpha" type="matrix" values="0 0 0 0 0 0 0 0 0 0 0 0 0 0 0 0 0 0 127 0" result="hardAlpha"/>
<feOffset dy="4"/>
<feGaussianBlur stdDeviation="2"/>
<feComposite in2="hardAlpha" operator="arithmetic" k2="-1" k3="1"/>
<feColorMatrix type="matrix" values="0 0 0 0 0 0 0 0 0 0 0 0 0 0 0 0 0 0 0.25 0"/>
<feBlend mode="normal" in2="shape" result="effect1_innerShadow_65_2"/>
</filter>
</defs>
</svg>
